<svg width="28" height="28" viewBox="0 0 28 28" fill="none" xmlns="http://www.w3.org/2000/svg">
  <circle cx="14" cy="14" r="14" fill="#181818"/>
  <path d="M10.5 21v-2.18a2.37 2.37 0 0 1 .66-1.85c-2.22-.25-4.56-1.11-4.56-4.95a3.87 3.87 0 0 1 1.03-2.68 3.6 3.6 0 0 1 .1-2.65s.84-.27 2.75 1.02a9.5 9.5 0 0 1 5 0c1.91-1.29 2.75-1.02 2.75-1.02.36.85.39 1.81.1 2.65a3.87 3.87 0 0 1 1.03 2.68c0 3.84-2.34 4.7-4.56 4.95.36.32.68.94.68 1.9V21" stroke="#fff" stroke-width="2" stroke-linecap="round" stroke-linejoin="round"/>
</svg>
